<?xml version="1.0" encoding="iso-8859-1"?>
<!-- Generator: Adobe Illustrator 19.0.0, SVG Export Plug-In . SVG Version: 6.00 Build 0)  -->
<svg version="1.1" id="Capa_1" xmlns="http://www.w3.org/2000/svg" xmlns:xlink="http://www.w3.org/1999/xlink" x="0px" y="0px"
	 viewBox="0 0 477.867 477.867" style="enable-background:new 0 0 477.867 477.867;" xml:space="preserve">
<g>
	<g>
		<path d="M409.6,0H68.267C30.564,0,0,30.564,0,68.267V409.6c0,37.703,30.564,68.267,68.267,68.267H409.6
			c37.703,0,68.267-30.564,68.267-68.267V68.267C477.867,30.564,447.303,0,409.6,0z M34.133,256
			c-9.426,0-17.067-7.641-17.067-17.067C16.831,116.636,115.782,17.303,238.08,17.067c57.636-0.111,113.045,22.254,154.454,62.344
			V34.133c0-9.426,7.641-17.067,17.067-17.067s17.067,7.641,17.067,17.067v85.333c0,7.828-5.326,14.652-12.919,16.555
			l-68.267,17.067c-1.357,0.336-2.749,0.508-4.147,0.512c-9.426-0.01-17.058-7.66-17.048-17.085
			c0.009-7.821,5.332-14.635,12.918-16.536l38.366-9.591c-70.912-75.537-189.632-79.287-265.17-8.375
			c-37.811,35.495-59.24,85.06-59.199,136.921C51.2,248.359,43.559,256,34.133,256z M238.933,460.8
			c-57.324-0.196-112.356-22.533-153.6-62.345v45.278c0,9.426-7.641,17.067-17.067,17.067S51.2,453.159,51.2,443.733V358.4
			c0-7.828,5.326-14.652,12.919-16.555l68.267-17.067c9.159-2.225,18.388,3.395,20.614,12.555
			c2.203,9.067-3.284,18.223-12.319,20.555l-38.281,9.591c70.972,75.481,189.696,79.136,265.176,8.163
			c37.717-35.464,59.101-84.938,59.09-136.71c0-9.426,7.641-17.067,17.067-17.067c9.426,0,17.067,7.641,17.067,17.067
			C460.659,361.408,361.408,460.659,238.933,460.8z"/>
	</g>
</g>
<g>
</g>
<g>
</g>
<g>
</g>
<g>
</g>
<g>
</g>
<g>
</g>
<g>
</g>
<g>
</g>
<g>
</g>
<g>
</g>
<g>
</g>
<g>
</g>
<g>
</g>
<g>
</g>
<g>
</g>
</svg>
